<svg width="130" height="38" viewBox="0 0 130 38" fill="none" xmlns="http://www.w3.org/2000/svg">
<path d="M0 0H130V23C130 31.2843 123.284 38 115 38H0V0Z" fill="#9C9C42"/>
<path d="M27.464 13.912V25H26.008V16.152L22.472 25H21.176L17.624 16.184V25H16.168V13.912H17.912L21.848 23.224L25.72 13.912H27.464ZM33.393 16.104C34.2463 16.104 34.9663 16.3173 35.553 16.744C36.1503 17.1707 36.5663 17.7413 36.801 18.456V16.216H38.257V25H36.801V22.76C36.5663 23.4747 36.1503 24.0453 35.553 24.472C34.9663 24.8987 34.2463 25.112 33.393 25.112C32.6143 25.112 31.921 24.9307 31.313 24.568C30.705 24.2053 30.225 23.688 29.873 23.016C29.5317 22.3333 29.361 21.5333 29.361 20.616C29.361 19.6987 29.5317 18.8987 29.873 18.216C30.225 17.5333 30.705 17.0107 31.313 16.648C31.921 16.2853 32.6143 16.104 33.393 16.104ZM33.809 17.4C32.913 17.4 32.193 17.688 31.649 18.264C31.1157 18.8293 30.849 19.6133 30.849 20.616C30.849 21.6187 31.1157 22.408 31.649 22.984C32.193 23.5493 32.913 23.832 33.809 23.832C34.385 23.832 34.897 23.6987 35.345 23.432C35.8037 23.1653 36.161 22.792 36.417 22.312C36.673 21.8213 36.801 21.256 36.801 20.616C36.801 19.976 36.673 19.4107 36.417 18.92C36.161 18.4293 35.8037 18.056 35.345 17.8C34.897 17.5333 34.385 17.4 33.809 17.4ZM40.3183 13.64C40.3183 13.3733 40.4089 13.16 40.5903 13C40.7716 12.8293 41.0116 12.744 41.3103 12.744C41.6089 12.744 41.8489 12.8293 42.0303 13C42.2116 13.16 42.3023 13.3733 42.3023 13.64C42.3023 13.9067 42.2116 14.1253 42.0303 14.296C41.8489 14.456 41.6089 14.536 41.3103 14.536C41.0116 14.536 40.7716 14.456 40.5903 14.296C40.4089 14.1253 40.3183 13.9067 40.3183 13.64ZM42.0303 16.216V25H40.5743V16.216H42.0303ZM48.9951 16.072C50.0191 16.072 50.8458 16.4027 51.4751 17.064C52.1045 17.7147 52.4191 18.6587 52.4191 19.896V25H50.9631V20.024C50.9631 19.1493 50.7391 18.4773 50.2911 18.008C49.8431 17.5387 49.2351 17.304 48.4671 17.304C47.6671 17.304 47.0271 17.5653 46.5471 18.088C46.0671 18.6 45.8271 19.352 45.8271 20.344V25H44.3711V16.216H45.8271V18.296C46.0511 17.5813 46.4458 17.032 47.0111 16.648C47.5871 16.264 48.2485 16.072 48.9951 16.072ZM68.1095 19.352C68.1095 20.4933 67.8802 21.4907 67.4215 22.344C66.9628 23.1867 66.2855 23.8427 65.3895 24.312C64.5042 24.7707 63.4375 25 62.1895 25H58.6055V13.72H62.1895C63.4375 13.72 64.5042 13.9493 65.3895 14.408C66.2855 14.856 66.9628 15.5067 67.4215 16.36C67.8802 17.2027 68.1095 18.2 68.1095 19.352ZM62.0775 23.688C63.5495 23.688 64.6748 23.3093 65.4535 22.552C66.2322 21.7947 66.6215 20.728 66.6215 19.352C66.6215 17.976 66.2322 16.9093 65.4535 16.152C64.6855 15.384 63.5602 15 62.0775 15H60.0615V23.688H62.0775ZM69.8183 13.64C69.8183 13.3733 69.9089 13.16 70.0903 13C70.2716 12.8293 70.5116 12.744 70.8103 12.744C71.1089 12.744 71.3489 12.8293 71.5303 13C71.7116 13.16 71.8023 13.3733 71.8023 13.64C71.8023 13.9067 71.7116 14.1253 71.5303 14.296C71.3489 14.456 71.1089 14.536 70.8103 14.536C70.5116 14.536 70.2716 14.456 70.0903 14.296C69.9089 14.1253 69.8183 13.9067 69.8183 13.64ZM71.5303 16.216V25H70.0743V16.216H71.5303ZM76.6231 16.104C77.6151 16.104 78.4098 16.3653 79.0071 16.888C79.6151 17.4 79.9831 18.0933 80.1111 18.968H78.7191C78.6551 18.4453 78.4365 18.0187 78.0631 17.688C77.7005 17.3467 77.2098 17.176 76.5911 17.176C76.0685 17.176 75.6578 17.304 75.3591 17.56C75.0711 17.8053 74.9271 18.1413 74.9271 18.568C74.9271 18.888 75.0231 19.1493 75.2151 19.352C75.4178 19.544 75.6631 19.6933 75.9511 19.8C76.2498 19.896 76.6551 20.0027 77.1671 20.12C77.8178 20.2693 78.3405 20.424 78.7351 20.584C79.1405 20.7333 79.4818 20.9787 79.7591 21.32C80.0471 21.6613 80.1911 22.12 80.1911 22.696C80.1911 23.4107 79.9191 23.992 79.3751 24.44C78.8418 24.888 78.1271 25.112 77.2311 25.112C76.1858 25.112 75.3325 24.8613 74.6711 24.36C74.0098 23.8587 73.6205 23.16 73.5031 22.264H74.9111C74.9645 22.7973 75.1938 23.2293 75.5991 23.56C76.0151 23.8907 76.5591 24.056 77.2311 24.056C77.7325 24.056 78.1218 23.928 78.3991 23.672C78.6871 23.416 78.8311 23.08 78.8311 22.664C78.8311 22.3227 78.7298 22.0507 78.5271 21.848C78.3245 21.6453 78.0738 21.4907 77.7751 21.384C77.4765 21.2773 77.0658 21.1653 76.5431 21.048C75.8925 20.8987 75.3698 20.7493 74.9751 20.6C74.5911 20.4507 74.2605 20.216 73.9831 19.896C73.7165 19.5653 73.5831 19.1227 73.5831 18.568C73.5831 17.832 73.8551 17.24 74.3991 16.792C74.9431 16.3333 75.6845 16.104 76.6231 16.104ZM86.7608 16.072C87.7848 16.072 88.6114 16.4027 89.2408 17.064C89.8701 17.7147 90.1848 18.6587 90.1848 19.896V25H88.7288V20.024C88.7288 19.1493 88.5048 18.4773 88.0568 18.008C87.6088 17.5387 87.0008 17.304 86.2328 17.304C85.4328 17.304 84.7928 17.5653 84.3128 18.088C83.8328 18.6 83.5928 19.352 83.5928 20.344V25H82.1368V13.16H83.5928V18.296C83.8168 17.5813 84.2114 17.032 84.7768 16.648C85.3528 16.264 86.0141 16.072 86.7608 16.072ZM100.498 20.12C100.498 20.4293 100.477 20.696 100.434 20.92H93.41C93.442 21.9227 93.7247 22.6747 94.258 23.176C94.802 23.6773 95.4633 23.928 96.242 23.928C96.946 23.928 97.5327 23.752 98.002 23.4C98.482 23.0373 98.7753 22.5573 98.882 21.96H100.434C100.327 22.568 100.087 23.112 99.714 23.592C99.3513 24.072 98.8767 24.4453 98.29 24.712C97.7033 24.9787 97.042 25.112 96.306 25.112C95.4633 25.112 94.7167 24.9307 94.066 24.568C93.4153 24.2053 92.9033 23.688 92.53 23.016C92.1673 22.3333 91.986 21.5333 91.986 20.616C91.986 19.6987 92.1673 18.8987 92.53 18.216C92.9033 17.5333 93.4153 17.0107 94.066 16.648C94.7167 16.2853 95.4633 16.104 96.306 16.104C97.1593 16.104 97.9007 16.2853 98.53 16.648C99.17 17.0107 99.6553 17.496 99.986 18.104C100.327 18.712 100.498 19.384 100.498 20.12ZM99.026 20.216C99.058 19.5653 98.9513 19.0213 98.706 18.584C98.4607 18.1467 98.1247 17.8213 97.698 17.608C97.2713 17.3947 96.8073 17.288 96.306 17.288C95.506 17.288 94.834 17.5387 94.29 18.04C93.746 18.5307 93.4527 19.256 93.41 20.216H99.026ZM105.154 16.104C106.146 16.104 106.941 16.3653 107.538 16.888C108.146 17.4 108.514 18.0933 108.642 18.968H107.25C107.186 18.4453 106.968 18.0187 106.594 17.688C106.232 17.3467 105.741 17.176 105.122 17.176C104.6 17.176 104.189 17.304 103.89 17.56C103.602 17.8053 103.458 18.1413 103.458 18.568C103.458 18.888 103.554 19.1493 103.746 19.352C103.949 19.544 104.194 19.6933 104.482 19.8C104.781 19.896 105.186 20.0027 105.698 20.12C106.349 20.2693 106.872 20.424 107.266 20.584C107.672 20.7333 108.013 20.9787 108.29 21.32C108.578 21.6613 108.722 22.12 108.722 22.696C108.722 23.4107 108.45 23.992 107.906 24.44C107.373 24.888 106.658 25.112 105.762 25.112C104.717 25.112 103.864 24.8613 103.202 24.36C102.541 23.8587 102.152 23.16 102.034 22.264H103.442C103.496 22.7973 103.725 23.2293 104.13 23.56C104.546 23.8907 105.09 24.056 105.762 24.056C106.264 24.056 106.653 23.928 106.93 23.672C107.218 23.416 107.362 23.08 107.362 22.664C107.362 22.3227 107.261 22.0507 107.058 21.848C106.856 21.6453 106.605 21.4907 106.306 21.384C106.008 21.2773 105.597 21.1653 105.074 21.048C104.424 20.8987 103.901 20.7493 103.506 20.6C103.122 20.4507 102.792 20.216 102.514 19.896C102.248 19.5653 102.114 19.1227 102.114 18.568C102.114 17.832 102.386 17.24 102.93 16.792C103.474 16.3333 104.216 16.104 105.154 16.104Z" fill="white"/>
</svg>
