<svg width="89" height="38" viewBox="0 0 89 38" fill="none" xmlns="http://www.w3.org/2000/svg">
<path d="M0 0H89V23C89 31.2843 82.2843 38 74 38H0V0Z" fill="#9C9C42"/>
<path d="M23.304 22.072C23.304 22.6053 23.176 23.1013 22.92 23.56C22.664 24.0187 22.2747 24.392 21.752 24.68C21.2293 24.968 20.584 25.112 19.816 25.112C19.0693 25.112 18.4027 24.9787 17.816 24.712C17.24 24.4347 16.776 24.0613 16.424 23.592C16.0827 23.112 15.8853 22.568 15.832 21.96H17.384C17.416 22.28 17.5227 22.5947 17.704 22.904C17.896 23.2027 18.1627 23.4533 18.504 23.656C18.856 23.848 19.2773 23.944 19.768 23.944C20.408 23.944 20.8987 23.7733 21.24 23.432C21.5813 23.0907 21.752 22.6533 21.752 22.12C21.752 21.6613 21.6293 21.288 21.384 21C21.1493 20.712 20.856 20.488 20.504 20.328C20.152 20.1573 19.672 19.976 19.064 19.784C18.3493 19.5493 17.7733 19.3307 17.336 19.128C16.9093 18.9147 16.5413 18.6 16.232 18.184C15.9333 17.768 15.784 17.2187 15.784 16.536C15.784 15.9493 15.9227 15.432 16.2 14.984C16.488 14.536 16.8933 14.1893 17.416 13.944C17.9493 13.6987 18.5733 13.576 19.288 13.576C20.3973 13.576 21.2773 13.848 21.928 14.392C22.5787 14.9253 22.9573 15.608 23.064 16.44H21.496C21.4107 15.992 21.1813 15.5973 20.808 15.256C20.4347 14.9147 19.928 14.744 19.288 14.744C18.7013 14.744 18.232 14.8987 17.88 15.208C17.528 15.5067 17.352 15.9333 17.352 16.488C17.352 16.9253 17.464 17.2827 17.688 17.56C17.9227 17.8267 18.2107 18.04 18.552 18.2C18.8933 18.3493 19.3627 18.52 19.96 18.712C20.6853 18.9467 21.2667 19.1707 21.704 19.384C22.152 19.5973 22.5307 19.9227 22.84 20.36C23.1493 20.7867 23.304 21.3573 23.304 22.072ZM28.8618 16.104C29.7151 16.104 30.4351 16.3173 31.0218 16.744C31.6191 17.1707 32.0351 17.7413 32.2698 18.456V16.216H33.7258V25H32.2698V22.76C32.0351 23.4747 31.6191 24.0453 31.0218 24.472C30.4351 24.8987 29.7151 25.112 28.8618 25.112C28.0831 25.112 27.3898 24.9307 26.7818 24.568C26.1738 24.2053 25.6938 23.688 25.3418 23.016C25.0004 22.3333 24.8298 21.5333 24.8298 20.616C24.8298 19.6987 25.0004 18.8987 25.3418 18.216C25.6938 17.5333 26.1738 17.0107 26.7818 16.648C27.3898 16.2853 28.0831 16.104 28.8618 16.104ZM29.2778 17.4C28.3818 17.4 27.6618 17.688 27.1178 18.264C26.5844 18.8293 26.3178 19.6133 26.3178 20.616C26.3178 21.6187 26.5844 22.408 27.1178 22.984C27.6618 23.5493 28.3818 23.832 29.2778 23.832C29.8538 23.832 30.3658 23.6987 30.8138 23.432C31.2724 23.1653 31.6298 22.792 31.8858 22.312C32.1418 21.8213 32.2698 21.256 32.2698 20.616C32.2698 19.976 32.1418 19.4107 31.8858 18.92C31.6298 18.4293 31.2724 18.056 30.8138 17.8C30.3658 17.5333 29.8538 17.4 29.2778 17.4ZM37.499 13.16V25H36.043V13.16H37.499ZM43.4399 16.104C44.2932 16.104 45.0132 16.3173 45.5999 16.744C46.1972 17.1707 46.6132 17.7413 46.8479 18.456V16.216H48.3039V25H46.8479V22.76C46.6132 23.4747 46.1972 24.0453 45.5999 24.472C45.0132 24.8987 44.2932 25.112 43.4399 25.112C42.6612 25.112 41.9679 24.9307 41.3599 24.568C40.7519 24.2053 40.2719 23.688 39.9199 23.016C39.5785 22.3333 39.4079 21.5333 39.4079 20.616C39.4079 19.6987 39.5785 18.8987 39.9199 18.216C40.2719 17.5333 40.7519 17.0107 41.3599 16.648C41.9679 16.2853 42.6612 16.104 43.4399 16.104ZM43.8559 17.4C42.9599 17.4 42.2399 17.688 41.6959 18.264C41.1625 18.8293 40.8959 19.6133 40.8959 20.616C40.8959 21.6187 41.1625 22.408 41.6959 22.984C42.2399 23.5493 42.9599 23.832 43.8559 23.832C44.4319 23.832 44.9439 23.6987 45.3919 23.432C45.8505 23.1653 46.2079 22.792 46.4639 22.312C46.7199 21.8213 46.8479 21.256 46.8479 20.616C46.8479 19.976 46.7199 19.4107 46.4639 18.92C46.2079 18.4293 45.8505 18.056 45.3919 17.8C44.9439 17.5333 44.4319 17.4 43.8559 17.4ZM54.2211 16.104C55.0745 16.104 55.7945 16.3173 56.3811 16.744C56.9785 17.1707 57.3945 17.7413 57.6291 18.456V13.16H59.0851V25H57.6291V22.76C57.3945 23.4747 56.9785 24.0453 56.3811 24.472C55.7945 24.8987 55.0745 25.112 54.2211 25.112C53.4425 25.112 52.7491 24.9307 52.1411 24.568C51.5331 24.2053 51.0531 23.688 50.7011 23.016C50.3598 22.3333 50.1891 21.5333 50.1891 20.616C50.1891 19.6987 50.3598 18.8987 50.7011 18.216C51.0531 17.5333 51.5331 17.0107 52.1411 16.648C52.7491 16.2853 53.4425 16.104 54.2211 16.104ZM54.6371 17.4C53.7411 17.4 53.0211 17.688 52.4771 18.264C51.9438 18.8293 51.6771 19.6133 51.6771 20.616C51.6771 21.6187 51.9438 22.408 52.4771 22.984C53.0211 23.5493 53.7411 23.832 54.6371 23.832C55.2131 23.832 55.7251 23.6987 56.1731 23.432C56.6318 23.1653 56.9891 22.792 57.2451 22.312C57.5011 21.8213 57.6291 21.256 57.6291 20.616C57.6291 19.976 57.5011 19.4107 57.2451 18.92C56.9891 18.4293 56.6318 18.056 56.1731 17.8C55.7251 17.5333 55.2131 17.4 54.6371 17.4ZM64.1544 16.104C65.1464 16.104 65.941 16.3653 66.5384 16.888C67.1464 17.4 67.5144 18.0933 67.6424 18.968H66.2504C66.1864 18.4453 65.9677 18.0187 65.5944 17.688C65.2317 17.3467 64.741 17.176 64.1224 17.176C63.5997 17.176 63.189 17.304 62.8904 17.56C62.6024 17.8053 62.4584 18.1413 62.4584 18.568C62.4584 18.888 62.5544 19.1493 62.7464 19.352C62.949 19.544 63.1944 19.6933 63.4824 19.8C63.781 19.896 64.1864 20.0027 64.6984 20.12C65.349 20.2693 65.8717 20.424 66.2664 20.584C66.6717 20.7333 67.013 20.9787 67.2904 21.32C67.5784 21.6613 67.7224 22.12 67.7224 22.696C67.7224 23.4107 67.4504 23.992 66.9064 24.44C66.373 24.888 65.6584 25.112 64.7624 25.112C63.717 25.112 62.8637 24.8613 62.2024 24.36C61.541 23.8587 61.1517 23.16 61.0344 22.264H62.4424C62.4957 22.7973 62.725 23.2293 63.1304 23.56C63.5464 23.8907 64.0904 24.056 64.7624 24.056C65.2637 24.056 65.653 23.928 65.9304 23.672C66.2184 23.416 66.3624 23.08 66.3624 22.664C66.3624 22.3227 66.261 22.0507 66.0584 21.848C65.8557 21.6453 65.605 21.4907 65.3064 21.384C65.0077 21.2773 64.597 21.1653 64.0744 21.048C63.4237 20.8987 62.901 20.7493 62.5064 20.6C62.1224 20.4507 61.7917 20.216 61.5144 19.896C61.2477 19.5653 61.1144 19.1227 61.1144 18.568C61.1144 17.832 61.3864 17.24 61.9304 16.792C62.4744 16.3333 63.2157 16.104 64.1544 16.104Z" fill="white"/>
</svg>
