<svg xmlns="http://www.w3.org/2000/svg" width="40" height="40" viewBox="0 0 40 40"><defs><style>.a{fill:#fff;}.b{fill:#11171d;}</style></defs><g transform="translate(-463 -12410)"><circle class="a" cx="20" cy="20" r="20" transform="translate(463 12410)"/><path class="b" d="M-5229.285-807.741a5.717,5.717,0,0,1,.094,1,6.3,6.3,0,0,1-.719,3.047,5.2,5.2,0,0,1-2.031,2.078,5.939,5.939,0,0,1-3,.75,5.872,5.872,0,0,1-3.016-.813,5.947,5.947,0,0,1-2.187-2.187,5.875,5.875,0,0,1-.8-3,5.875,5.875,0,0,1,.8-3,5.957,5.957,0,0,1,2.187-2.188,5.881,5.881,0,0,1,3.016-.812,5.624,5.624,0,0,1,4,1.562l-1.625,1.563a3.28,3.28,0,0,0-2.375-.907,3.638,3.638,0,0,0-1.86.5,3.667,3.667,0,0,0-1.359,1.375,3.783,3.783,0,0,0-.5,1.907,3.779,3.779,0,0,0,.5,1.906,3.66,3.66,0,0,0,1.359,1.375,3.638,3.638,0,0,0,1.86.5,3.743,3.743,0,0,0,1.906-.469,2.887,2.887,0,0,0,1.063-1.062,2.886,2.886,0,0,0,.437-1.032h-3.406v-2.093Zm5.781.218v-1.75h-1.75v1.75h-1.718v1.75h1.718v1.75h1.75v-1.75h1.75v-1.75Z" transform="translate(5714.8 13236.866)"/></g></svg>