<svg xmlns="http://www.w3.org/2000/svg" width="40" height="40" viewBox="0 0 40 40"><defs><style>.a{fill:#fff;}.b{fill:#11171d;}</style></defs><g transform="translate(-639 -12410)"><circle class="a" cx="20" cy="20" r="20" transform="translate(639 12410)"/><path class="b" d="M-5061.254-811.491a1.622,1.622,0,0,1-1.187-.5,1.619,1.619,0,0,1-.5-1.188,1.619,1.619,0,0,1,.5-1.187,1.623,1.623,0,0,1,1.187-.5,1.626,1.626,0,0,1,1.188.5,1.622,1.622,0,0,1,.5,1.187,1.623,1.623,0,0,1-.5,1.188A1.626,1.626,0,0,1-5061.254-811.491Zm1.438,10.625h-2.906v-9.344h2.906Zm10.875,0h-2.906v-4.563a5.048,5.048,0,0,0-.188-1.625,1.316,1.316,0,0,0-1.344-.844,1.464,1.464,0,0,0-1.406.75,3.5,3.5,0,0,0-.312,1.657v4.625h-2.875v-9.344h2.781v1.281h.031a2.5,2.5,0,0,1,1-1.031,3.083,3.083,0,0,1,1.75-.5,3.1,3.1,0,0,1,2.844,1.281,6.329,6.329,0,0,1,.625,3.188Z" transform="translate(5714.8 13236.866)"/></g></svg>