<svg xmlns="http://www.w3.org/2000/svg" width="10.991" height="10.991" viewBox="0 0 10.991 10.991"><defs><style>.a{fill:#21272e;}</style></defs><path class="a" d="M-4247.461-1310.666a.928.928,0,0,1,.269.66.891.891,0,0,1-.269.653l-3.562,3.569a.929.929,0,0,1-.66.269.889.889,0,0,1-.653-.269l-5.187-5.194a2.159,2.159,0,0,1-.468-.733,2.239,2.239,0,0,1-.192-.849v-3.017a.891.891,0,0,1,.276-.653.891.891,0,0,1,.653-.276h3.017a2.235,2.235,0,0,1,.849.192,2.239,2.239,0,0,1,.74.468l5.187,5.18Zm-7.744-2.862a.9.9,0,0,0,.272-.657.894.894,0,0,0-.272-.656.892.892,0,0,0-.657-.272.891.891,0,0,0-.656.272.894.894,0,0,0-.272.656.9.9,0,0,0,.272.657.9.9,0,0,0,.656.272A.9.9,0,0,0-4255.205-1313.528Z" transform="translate(4258.183 1316.506)"/></svg>