<svg xmlns="http://www.w3.org/2000/svg" width="12.081" height="12.081" viewBox="0 0 12.081 12.081"><defs><style>.a{fill:red;}</style></defs><path class="a" d="M-4497.719-864.917a1.093,1.093,0,0,1-.331.8,1.092,1.092,0,0,1-.8.331h-9.816a1.092,1.092,0,0,1-.8-.331,1.091,1.091,0,0,1-.33-.8v-6.206a1.076,1.076,0,0,1,.424-.9q.968-.754,3.893-2.878l.213-.165a4.688,4.688,0,0,1,.755-.519,1.5,1.5,0,0,1,.755-.283,1.507,1.507,0,0,1,.755.283,4.71,4.71,0,0,1,.755.519l.212.165q2.925,2.124,3.894,2.878a1.076,1.076,0,0,1,.425.9Zm-1.558-4.649a.309.309,0,0,0-.118-.07.155.155,0,0,0-.142.023l-2.713,2.005a4.663,4.663,0,0,1-.755.519,1.507,1.507,0,0,1-.755.283,1.5,1.5,0,0,1-.755-.283,4.642,4.642,0,0,1-.755-.519l-2.714-2.005a.156.156,0,0,0-.142-.023.309.309,0,0,0-.117.07l-.212.331a.143.143,0,0,0-.036.13.218.218,0,0,0,.059.13l2.737,1.982a6.479,6.479,0,0,0,.9.613,2.091,2.091,0,0,0,1.038.331,2.094,2.094,0,0,0,1.038-.331,6.539,6.539,0,0,0,.9-.613l2.737-1.982a.223.223,0,0,0,.059-.13.144.144,0,0,0-.036-.13Z" transform="translate(4509.8 875.866)"/></svg>