<svg xmlns="http://www.w3.org/2000/svg" width="45" height="45" viewBox="0 0 45 45"><defs><style>.a,.b{fill:#11171d;}.a{fill-rule:evenodd;}</style></defs><path class="a" d="M-1626.588,7.035h0a21.5,21.5,0,0,1-21.5,21.5,21.5,21.5,0,0,1-21.5-21.5,21.5,21.5,0,0,1,21.5-21.5A21.5,21.5,0,0,1-1626.588,7.035Zm1,0h0a22.5,22.5,0,0,1-22.5,22.5,22.5,22.5,0,0,1-22.5-22.5,22.5,22.5,0,0,1,22.5-22.5A22.5,22.5,0,0,1-1625.588,7.035Z" transform="translate(1670.588 15.465)"/><path class="b" d="M-1645.465,10.334a.635.635,0,0,1,.192.465.633.633,0,0,1-.192.464.643.643,0,0,1-.472.192.641.641,0,0,1-.472-.192l-2.832-2.849a.623.623,0,0,1-.208-.48.623.623,0,0,1,.208-.479l2.832-2.816a.641.641,0,0,1,.472-.192.643.643,0,0,1,.472.192.631.631,0,0,1,.192.463.635.635,0,0,1-.192.465l-2.368,2.367Z" transform="translate(1670.588 15.465)"/></svg>