<svg xmlns="http://www.w3.org/2000/svg" width="12.696" height="12.696" viewBox="0 0 12.696 12.696"><defs><style>.a{fill:red;}</style></defs><path class="a" d="M-4497.219-920.045a.631.631,0,0,1,.125.372,11.323,11.323,0,0,1-1.564,5.805,11.564,11.564,0,0,1-4.143,4.144,11.328,11.328,0,0,1-5.806,1.563.629.629,0,0,1-.373-.125.467.467,0,0,1-.2-.347l-.6-2.58a.56.56,0,0,1,.049-.4.533.533,0,0,1,.3-.273l2.779-1.191a.635.635,0,0,1,.373-.037.5.5,0,0,1,.322.211l1.217,1.489a8.731,8.731,0,0,0,2.592-1.811,9.113,9.113,0,0,0,1.8-2.58l-1.489-1.241a.591.591,0,0,1-.2-.31.622.622,0,0,1,.025-.385l1.191-2.779a.551.551,0,0,1,.273-.273.559.559,0,0,1,.4-.049l2.58.6A.471.471,0,0,1-4497.219-920.045Z" transform="translate(4509.79 920.856)"/></svg>