<svg width="36" height="36" viewBox="0 0 36 36" fill="none" xmlns="http://www.w3.org/2000/svg">
<circle cx="18" cy="18" r="18" fill="white"/>
<path d="M25.7627 12.1308C26.623 11.6151 27.2836 10.7986 27.5947 9.8257C26.7897 10.3031 25.898 10.6499 24.9489 10.8368C24.1889 10.027 23.1061 9.521 21.9078 9.521C19.6067 9.521 17.7412 11.3864 17.7412 13.6873C17.7412 14.0139 17.7781 14.3319 17.8491 14.6368C14.3864 14.4631 11.3163 12.8044 9.2614 10.2837C8.90276 10.899 8.6973 11.6147 8.6973 12.3783C8.6973 13.8237 9.43292 15.099 10.5509 15.8461C9.86784 15.8245 9.22545 15.6371 8.66365 15.325C8.66335 15.3424 8.66335 15.3599 8.66335 15.3774C8.66335 17.3961 10.0995 19.0801 12.0055 19.4628C11.6559 19.558 11.2878 19.6089 10.9078 19.6089C10.6393 19.6089 10.3783 19.5828 10.124 19.5342C10.6541 21.1895 12.1928 22.3941 14.016 22.4277C12.5901 23.5451 10.7935 24.2112 8.84155 24.2112C8.50528 24.2112 8.17361 24.1915 7.84766 24.1531C9.69149 25.3352 11.8816 26.0249 14.2345 26.0249C21.898 26.0249 26.0887 19.6762 26.0887 14.1705C26.0887 13.9898 26.0847 13.8101 26.0767 13.6315C26.8907 13.0441 27.5971 12.3102 28.1557 11.4747C27.4085 11.8061 26.6055 12.03 25.7627 12.1308Z" fill="#2B2B39"/>
</svg>
