<svg xmlns="http://www.w3.org/2000/svg" width="9.285" height="11.143" viewBox="0 0 9.285 11.143"><defs><style>.a{fill:#21272e;}</style></defs><path class="a" d="M-4542.969-1307.285a2.1,2.1,0,0,1-.453,1.356,1.359,1.359,0,0,1-1.092.566h-6.195a1.359,1.359,0,0,1-1.092-.566,2.1,2.1,0,0,1-.453-1.356,10.446,10.446,0,0,1,.061-1.165,6.162,6.162,0,0,1,.229-1.1,3.642,3.642,0,0,1,.424-.95,2.039,2.039,0,0,1,.682-.646,1.882,1.882,0,0,1,.976-.25,3.132,3.132,0,0,0,2.27.928,3.136,3.136,0,0,0,2.271-.928,1.882,1.882,0,0,1,.976.25,2.039,2.039,0,0,1,.682.646,3.691,3.691,0,0,1,.424.95,6.383,6.383,0,0,1,.229,1.1A10.45,10.45,0,0,1-4542.969-1307.285Zm-2.673-8.4a2.683,2.683,0,0,1,.816,1.969,2.684,2.684,0,0,1-.816,1.97,2.684,2.684,0,0,1-1.97.816,2.683,2.683,0,0,1-1.969-.816,2.684,2.684,0,0,1-.816-1.97,2.683,2.683,0,0,1,.816-1.969,2.683,2.683,0,0,1,1.969-.816A2.684,2.684,0,0,1-4545.642-1315.69Z" transform="translate(4552.254 1316.506)"/></svg>