<svg width="14" height="19" viewBox="0 0 14 19" fill="none" xmlns="http://www.w3.org/2000/svg">
<path d="M12.586 18.316C12.53 18.316 12.313 18.239 11.935 18.085C11.571 17.945 11.326 17.854 11.2 17.812C10.206 17.406 7.77 16.44 3.892 14.914C2.646 14.424 1.694 13.584 1.036 12.394C0.392 11.204 0.07 9.706 0.07 7.9C0.07 5.478 0.651 3.623 1.813 2.335C2.975 1.033 4.641 0.382 6.811 0.382C8.981 0.382 10.64 1.033 11.788 2.335C12.95 3.623 13.531 5.478 13.531 7.9C13.531 9.552 13.244 10.945 12.67 12.079C12.11 13.213 11.298 14.053 10.234 14.599V14.683L13.447 15.838C13.643 15.908 13.741 16.02 13.741 16.174C13.741 16.314 13.685 16.559 13.573 16.909C13.461 17.273 13.314 17.595 13.132 17.875C12.964 18.169 12.782 18.316 12.586 18.316ZM6.811 12.751C7.931 12.751 8.778 12.338 9.352 11.512C9.926 10.686 10.213 9.482 10.213 7.9C10.213 6.346 9.926 5.17 9.352 4.372C8.778 3.56 7.931 3.154 6.811 3.154C5.691 3.154 4.837 3.56 4.249 4.372C3.675 5.17 3.388 6.346 3.388 7.9C3.388 9.482 3.675 10.686 4.249 11.512C4.837 12.338 5.691 12.751 6.811 12.751Z" fill="white"/>
</svg>
