<svg xmlns="http://www.w3.org/2000/svg" width="40" height="40" viewBox="0 0 40 40"><defs><style>.a{fill:#fff;}.b{fill:#11171d;}</style></defs><g transform="translate(-405 -12410)"><circle class="a" cx="20" cy="20" r="20" transform="translate(405 12410)"/><path class="b" d="M-5291.519-798.866v-7.157h-2.406v-2.843h2.406v-2.25a3.7,3.7,0,0,1,1-2.766,3.622,3.622,0,0,1,2.656-.984,15.548,15.548,0,0,1,2.188.125v2.531h-1.5a1.452,1.452,0,0,0-1.157.375,1.6,1.6,0,0,0-.25,1v1.969h2.657l-.375,2.843h-2.282v7.157Z" transform="translate(5714.8 13236.866)"/></g></svg>