<svg xmlns="http://www.w3.org/2000/svg" width="30" height="30" viewBox="0 0 30 30"><defs><style>.a{fill:#c1008a;}.b{fill:#fff;}</style></defs><g transform="translate(-539.498 -4286.004)"><circle class="a" cx="15" cy="15" r="15" transform="translate(539.498 4286.004)"/><path class="b" d="M-1641.244-1647.17q0,1.905-.044,2.74a5.589,5.589,0,0,1-.249,1.45,3.42,3.42,0,0,1-.806,1.274,3.415,3.415,0,0,1-1.274.806,5.549,5.549,0,0,1-1.451.249q-.834.044-2.739.044t-2.739-.044a4.779,4.779,0,0,1-1.45-.278,3.127,3.127,0,0,1-1.275-.777,3.406,3.406,0,0,1-.805-1.274,5.5,5.5,0,0,1-.249-1.45q-.045-.836-.044-2.74t.044-2.739a5.5,5.5,0,0,1,.249-1.45,3.407,3.407,0,0,1,.805-1.274,3.412,3.412,0,0,1,1.275-.806,5.534,5.534,0,0,1,1.45-.249q.836-.044,2.739-.044t2.739.044a5.544,5.544,0,0,1,1.451.249,3.417,3.417,0,0,1,1.274.806,3.422,3.422,0,0,1,.806,1.274,5.986,5.986,0,0,1,.263,1.465Q-1641.244-1649.074-1641.244-1647.17Zm-1.2,2.286q.028-.645.029-1.817v-.937q0-1.2-.029-1.817a5.921,5.921,0,0,0-.235-1.582,2.115,2.115,0,0,0-1.26-1.26,5.931,5.931,0,0,0-1.582-.234q-.644-.029-1.816-.029h-.938q-1.172,0-1.816.029a6.223,6.223,0,0,0-1.582.234,2.118,2.118,0,0,0-1.26,1.26,5.886,5.886,0,0,0-.234,1.582q-.03.645-.029,1.817v.937q0,1.172.029,1.817a6.177,6.177,0,0,0,.234,1.582,2.22,2.22,0,0,0,1.26,1.259,6.126,6.126,0,0,0,1.582.235q.644.029,1.816.029h.938q1.2,0,1.816-.029a5.841,5.841,0,0,0,1.582-.235,2.214,2.214,0,0,0,1.26-1.259,6.216,6.216,0,0,0,.235-1.582Zm-3.677-5.2a3.4,3.4,0,0,1,1.23,1.231,3.273,3.273,0,0,1,.454,1.684,3.275,3.275,0,0,1-.454,1.685,3.375,3.375,0,0,1-1.23,1.23,3.272,3.272,0,0,1-1.685.455,3.265,3.265,0,0,1-1.684-.455,3.37,3.37,0,0,1-1.231-1.23,3.275,3.275,0,0,1-.454-1.685,3.273,3.273,0,0,1,.454-1.684,3.4,3.4,0,0,1,1.231-1.231,3.283,3.283,0,0,1,1.684-.454A3.29,3.29,0,0,1-1646.122-1650.085Zm-.132,4.468a2.117,2.117,0,0,0,.644-1.553,2.117,2.117,0,0,0-.644-1.552,2.118,2.118,0,0,0-1.553-.645,2.118,2.118,0,0,0-1.553.645,2.117,2.117,0,0,0-.644,1.552,2.118,2.118,0,0,0,.644,1.553,2.118,2.118,0,0,0,1.553.645A2.118,2.118,0,0,0-1646.254-1645.617Zm2.519-5.625a.759.759,0,0,0-.556-.234.761.761,0,0,0-.557.234.763.763,0,0,0-.234.557.759.759,0,0,0,.234.556.758.758,0,0,0,.557.235.712.712,0,0,0,.542-.235.915.915,0,0,0,.249-.556A.76.76,0,0,0-1643.735-1651.242Z" transform="translate(2201.838 5948.544)"/></g></svg>