<svg xmlns="http://www.w3.org/2000/svg" width="14.631" height="14" viewBox="0 0 14.631 14"><defs><style>.a{fill:red;}</style></defs><path class="a" d="M-1174.777-341.661a.943.943,0,0,1,.629,0,.832.832,0,0,1,.478.438l1.778,3.609,3.992.574a.829.829,0,0,1,.56.329.911.911,0,0,1,.192.6.843.843,0,0,1-.26.574l-2.9,2.817.684,3.992a.867.867,0,0,1-.123.615.8.8,0,0,1-.506.369.839.839,0,0,1-.629-.082l-3.582-1.859-3.582,1.859a.839.839,0,0,1-.629.082.8.8,0,0,1-.506-.369.867.867,0,0,1-.123-.615l.684-3.992-2.9-2.817a.834.834,0,0,1-.26-.574.9.9,0,0,1,.191-.6.832.832,0,0,1,.561-.329l3.992-.574,1.777-3.609A.833.833,0,0,1-1174.777-341.661Z" transform="translate(1181.778 341.715)"/></svg>