<svg xmlns="http://www.w3.org/2000/svg" width="30" height="30" viewBox="0 0 30 30"><defs><style>.a{fill:#bd081b;}.b{fill:#fff;}</style></defs><g transform="translate(-582.498 -4286.004)"><circle class="a" cx="15" cy="15" r="15" transform="translate(582.498 4286.004)"/><path class="b" d="M-1601.769-1653.864a4.817,4.817,0,0,1,1.919,1.655,4.52,4.52,0,0,1,.762,2.564,7.635,7.635,0,0,1-.469,2.681,5.054,5.054,0,0,1-1.494,2.167,3.925,3.925,0,0,1-2.549.879,2.7,2.7,0,0,1-1.172-.278,1.779,1.779,0,0,1-.849-.776l-.235.937a19.034,19.034,0,0,1-.615,2.11,11.566,11.566,0,0,1-1.26,2.021l-.117.059-.088-.088-.029-.44q-.089-.82-.088-1.23a11.747,11.747,0,0,1,.293-2.285q.176-.821.586-2.432l.352-1.406a3.143,3.143,0,0,1-.293-1.465,2.2,2.2,0,0,1,.439-1.406,1.611,1.611,0,0,1,.938-.586,1.117,1.117,0,0,1,.966.2,1.222,1.222,0,0,1,.41,1.025,3.538,3.538,0,0,1-.117.85,7.2,7.2,0,0,1-.263.82,7.164,7.164,0,0,0-.264.82,3.453,3.453,0,0,0-.117.821,1.208,1.208,0,0,0,.4.923,1.353,1.353,0,0,0,.952.366,1.947,1.947,0,0,0,1.582-.82,4.361,4.361,0,0,0,.821-1.817,7.6,7.6,0,0,0,.234-1.846,3.02,3.02,0,0,0-.952-2.373,3.624,3.624,0,0,0-2.505-.849,4.258,4.258,0,0,0-2.1.527,3.806,3.806,0,0,0-1.479,1.436,4.061,4.061,0,0,0-.527,2.08,2.733,2.733,0,0,0,.175.967,3.25,3.25,0,0,0,.323.644,1.082,1.082,0,0,1,.175.381,1.93,1.93,0,0,1-.117.586q-.147.439-.322.439a1.278,1.278,0,0,1-.82-.395,3.039,3.039,0,0,1-.733-1.07,4.613,4.613,0,0,1-.322-1.757,4.716,4.716,0,0,1,.879-2.813,5.637,5.637,0,0,1,2.2-1.8,6.64,6.64,0,0,1,2.9-.659A6.086,6.086,0,0,1-1601.769-1653.864Z" transform="translate(2201.838 5948.544)"/></g></svg>