<svg xmlns="http://www.w3.org/2000/svg" width="10.5" height="14" viewBox="0 0 10.5 14"><defs><style>.a{fill:#262626;}</style></defs><path class="a" d="M-5399.98-5652.322q-.711-1.04-1.832-2.625-1.367-1.968-1.8-2.652a7.684,7.684,0,0,1-.848-1.654,4.976,4.976,0,0,1-.219-1.545,5.069,5.069,0,0,1,.711-2.625,5.354,5.354,0,0,1,1.914-1.914,5.067,5.067,0,0,1,2.625-.711,5.064,5.064,0,0,1,2.625.711,5.35,5.35,0,0,1,1.914,1.914,5.064,5.064,0,0,1,.711,2.625,5.007,5.007,0,0,1-.218,1.545,7.781,7.781,0,0,1-.848,1.654q-.438.684-1.805,2.652l-1.832,2.625a.629.629,0,0,1-.547.274A.63.63,0,0,1-5399.98-5652.322Zm.547-6.289a2.107,2.107,0,0,0,1.545-.642,2.11,2.11,0,0,0,.643-1.545,2.106,2.106,0,0,0-.643-1.545,2.106,2.106,0,0,0-1.545-.643,2.11,2.11,0,0,0-1.545.643,2.107,2.107,0,0,0-.642,1.545,2.111,2.111,0,0,0,.642,1.545A2.111,2.111,0,0,0-5399.433-5658.611Z" transform="translate(5404.683 5666.048)"/></svg>