<svg width="36" height="36" viewBox="0 0 36 36" fill="none" xmlns="http://www.w3.org/2000/svg">
<circle cx="18" cy="18" r="18" fill="white"/>
<path d="M17.9542 10.2539C20.475 10.2539 20.75 10.2539 21.7583 10.2998C22.675 10.3456 23.1792 10.4831 23.5 10.6206C23.9125 10.7581 24.2792 11.0331 24.6 11.3081C24.9208 11.6289 25.15 11.9956 25.2875 12.4081C25.425 12.7289 25.5625 13.2331 25.6083 14.1498C25.6542 15.1581 25.6542 15.4331 25.6542 17.9539C25.6542 20.4748 25.6542 20.7498 25.6083 21.7581C25.5625 22.6748 25.425 23.1789 25.2875 23.4998C24.9667 24.3248 24.325 24.9664 23.5 25.2873C23.1792 25.4248 22.675 25.5623 21.7583 25.6081C20.75 25.6539 20.475 25.6539 17.9542 25.6539C15.4333 25.6539 15.1583 25.6539 14.15 25.6081C13.2333 25.5623 12.7292 25.4248 12.4083 25.2873C11.9958 25.1498 11.6292 24.8748 11.3083 24.5998C10.9875 24.2789 10.7583 23.9123 10.6208 23.4998C10.4833 23.1789 10.3458 22.6748 10.3 21.7581C10.2542 20.7498 10.2542 20.4748 10.2542 17.9539C10.2542 15.4331 10.2542 15.1581 10.3 14.1498C10.3458 13.2331 10.4833 12.7289 10.6208 12.4081C10.7583 11.9956 11.0333 11.6289 11.3083 11.3081C11.6292 10.9873 11.9958 10.7581 12.4083 10.6206C12.7292 10.4831 13.2333 10.3456 14.15 10.2998C15.1583 10.2539 15.4792 10.2539 17.9542 10.2539ZM17.9542 8.55811C15.3875 8.55811 15.0667 8.55811 14.0583 8.60394C13.05 8.64977 12.3625 8.78727 11.7667 9.06227C11.1708 9.29144 10.6208 9.65811 10.1625 10.1164C9.70418 10.5748 9.29168 11.1706 9.06252 11.7664C8.83335 12.3623 8.65002 13.0498 8.60418 14.0581C8.55835 15.0664 8.55835 15.3873 8.55835 17.9539C8.55835 20.5206 8.55835 20.8414 8.60418 21.8498C8.65002 22.8581 8.78752 23.5456 9.06252 24.1414C9.29168 24.7373 9.65835 25.3331 10.1625 25.7914C10.6208 26.2498 11.2167 26.6623 11.8125 26.8914C12.4083 27.1206 13.0958 27.3039 14.1042 27.3498C15.1125 27.3956 15.4333 27.3956 18 27.3956C20.5667 27.3956 20.8875 27.3956 21.8958 27.3498C22.9042 27.3039 23.5917 27.1664 24.1875 26.8914C25.4708 26.3873 26.4333 25.4248 26.9375 24.1414C27.1667 23.5456 27.35 22.8581 27.3958 21.8498C27.4417 20.8414 27.4417 20.5206 27.4417 17.9539C27.4417 15.3873 27.4417 15.0664 27.3958 14.0581C27.35 13.0498 27.2125 12.3623 26.9375 11.7664C26.7083 11.1248 26.3417 10.5748 25.8375 10.1164C25.3792 9.65811 24.7833 9.24561 24.1875 9.01644C23.5917 8.78727 22.9042 8.60394 21.8958 8.55811C20.8417 8.55811 20.5208 8.55811 17.9542 8.55811Z" fill="#2B2B39"/>
<path d="M17.9529 13.1416C15.2945 13.1416 13.1404 15.2958 13.1404 17.9541C13.1404 20.6124 15.2945 22.7666 17.9529 22.7666C20.6112 22.7666 22.7654 20.6124 22.7654 17.9541C22.8112 15.2958 20.6571 13.1416 17.9529 13.1416ZM17.9529 21.1166C16.2112 21.1166 14.8362 19.6958 14.8362 17.9999C14.8362 16.2583 16.257 14.8833 17.9529 14.8833C19.6946 14.8833 21.0696 16.3041 21.0696 17.9999C21.1154 19.6958 19.6946 21.1166 17.9529 21.1166Z" fill="#2B2B39"/>
<path d="M22.9972 14.1042C23.63 14.1042 24.143 13.5912 24.143 12.9583C24.143 12.3255 23.63 11.8125 22.9972 11.8125C22.3643 11.8125 21.8513 12.3255 21.8513 12.9583C21.8513 13.5912 22.3643 14.1042 22.9972 14.1042Z" fill="#2B2B39"/>
</svg>
