<svg xmlns="http://www.w3.org/2000/svg" width="30" height="30" viewBox="0 0 30 30"><defs><style>.a{fill:#4267b2;}.b{fill:#fff;}</style></defs><g transform="translate(-452.498 -4286.004)"><circle class="a" cx="15" cy="15" r="15" transform="translate(452.498 4286.004)"/><path class="b" d="M-1735.6-1639.67v-6.709h-2.256v-2.666h2.256v-2.109a3.472,3.472,0,0,1,.938-2.593,3.394,3.394,0,0,1,2.49-.923,14.529,14.529,0,0,1,2.051.118v2.373h-1.407a1.362,1.362,0,0,0-1.084.351,1.508,1.508,0,0,0-.234.938v1.845h2.49l-.351,2.666h-2.139v6.709Z" transform="translate(2201.838 5948.544)"/></g></svg>