<svg width="36" height="36" viewBox="0 0 36 36" fill="none" xmlns="http://www.w3.org/2000/svg">
<circle cx="18" cy="18" r="18" fill="white"/>
<path d="M11.5678 13.5973C12.6755 13.5973 13.5735 12.6993 13.5735 11.5916C13.5735 10.4839 12.6755 9.58594 11.5678 9.58594C10.4601 9.58594 9.56213 10.4839 9.56213 11.5916C9.56213 12.6993 10.4601 13.5973 11.5678 13.5973Z" fill="#2B2B39"/>
<path d="M15.4661 15.1173V26.2447H18.921V20.742C18.921 19.29 19.1942 17.8838 20.9945 17.8838C22.7701 17.8838 22.7921 19.5439 22.7921 20.8336V26.2456H26.2489V20.1434C26.2489 17.1459 25.6035 14.8423 22.1 14.8423C20.4179 14.8423 19.2904 15.7654 18.8294 16.639H18.7826V15.1173H15.4661ZM9.83594 15.1173H13.2964V26.2447H9.83594V15.1173Z" fill="#2B2B39"/>
</svg>
