<svg xmlns="http://www.w3.org/2000/svg" width="45" height="45" viewBox="0 0 45 45"><defs><style>.a,.b{fill:#11171d;}.a{fill-rule:evenodd;}</style></defs><path class="a" d="M-1566.588,7.035h0a21.5,21.5,0,0,1-21.5,21.5,21.5,21.5,0,0,1-21.5-21.5,21.5,21.5,0,0,1,21.5-21.5A21.5,21.5,0,0,1-1566.588,7.035Zm1,0h0a22.5,22.5,0,0,1-22.5,22.5,22.5,22.5,0,0,1-22.5-22.5,22.5,22.5,0,0,1,22.5-22.5A22.5,22.5,0,0,1-1565.588,7.035Z" transform="translate(1610.588 15.465)"/><path class="b" d="M-1585.257,7.934a.627.627,0,0,1-.208.48l-2.832,2.816a.64.64,0,0,1-.472.193.638.638,0,0,1-.472-.193.64.64,0,0,1-.192-.471.639.639,0,0,1,.192-.472l2.368-2.353-2.368-2.367a.635.635,0,0,1-.192-.465.63.63,0,0,1,.192-.463.641.641,0,0,1,.472-.192.643.643,0,0,1,.472.192l2.832,2.816A.626.626,0,0,1-1585.257,7.934Z" transform="translate(1610.588 15.465)"/></svg>