<svg xmlns="http://www.w3.org/2000/svg" width="16" height="12" viewBox="0 0 16 12"><defs><style>.a{fill:rgba(0,0,0,0.6);}</style></defs><path class="a" d="M-3914.645-5920.364v9.271a1.283,1.283,0,0,1-.42.963,1.408,1.408,0,0,1-1.009.4h-13.143a1.41,1.41,0,0,1-1.009-.4,1.286,1.286,0,0,1-.419-.963v-9.271a1.287,1.287,0,0,1,.419-.963,1.412,1.412,0,0,1,1.009-.4h13.143a1.41,1.41,0,0,1,1.009.4A1.284,1.284,0,0,1-3914.645-5920.364Zm-1.143.314v-.208c0-.025,0-.063,0-.111a.235.235,0,0,0-.027-.107c-.015-.022-.032-.047-.049-.076a.167.167,0,0,0-.081-.064.333.333,0,0,0-.125-.022h-13.143a.282.282,0,0,0-.2.081.257.257,0,0,0-.085.192,2.942,2.942,0,0,0,1.312,2.42q1.723,1.3,3.581,2.7c.035.029.139.113.312.252s.309.245.411.319.233.164.4.269a2.384,2.384,0,0,0,.451.234,1.1,1.1,0,0,0,.384.076h.018a1.1,1.1,0,0,0,.384-.076,2.384,2.384,0,0,0,.451-.234c.163-.1.3-.194.4-.269s.238-.181.411-.319l.312-.252q1.857-1.406,3.58-2.7a4.066,4.066,0,0,0,.9-.984A2.066,2.066,0,0,0-3915.788-5920.049Zm0,8.957v-6.545a5.137,5.137,0,0,1-.616.562q-2.392,1.757-3.8,2.881c-.3.244-.55.436-.741.572a4.27,4.27,0,0,1-.772.413,2.331,2.331,0,0,1-.915.208h-.018a2.324,2.324,0,0,1-.915-.208,4.292,4.292,0,0,1-.773-.413c-.19-.136-.437-.328-.741-.572q-1.41-1.124-3.8-2.881a4.992,4.992,0,0,1-.616-.562v6.545a.252.252,0,0,0,.085.192.278.278,0,0,0,.2.081h13.143a.279.279,0,0,0,.2-.081A.252.252,0,0,0-3915.788-5911.092Z" transform="translate(3930.645 5921.728)"/></svg>