<svg xmlns="http://www.w3.org/2000/svg" width="12" height="16" viewBox="0 0 12 16"><defs><style>.a{fill:red;}</style></defs><path class="a" d="M-4504.425-950.179q-.813-1.188-2.094-3-1.563-2.25-2.063-3.031a8.755,8.755,0,0,1-.968-1.891,5.671,5.671,0,0,1-.25-1.765,5.79,5.79,0,0,1,.812-3,6.117,6.117,0,0,1,2.188-2.188,5.794,5.794,0,0,1,3-.812,5.8,5.8,0,0,1,3,.812,6.122,6.122,0,0,1,2.187,2.188,5.791,5.791,0,0,1,.813,3,5.7,5.7,0,0,1-.25,1.765,8.817,8.817,0,0,1-.969,1.891q-.5.781-2.063,3.031l-2.093,3a.719.719,0,0,1-.625.313A.717.717,0,0,1-4504.425-950.179Zm.625-7.187a2.4,2.4,0,0,0,1.765-.735,2.408,2.408,0,0,0,.735-1.765,2.41,2.41,0,0,0-.735-1.766,2.408,2.408,0,0,0-1.765-.734,2.408,2.408,0,0,0-1.766.734,2.4,2.4,0,0,0-.734,1.766,2.4,2.4,0,0,0,.734,1.765A2.4,2.4,0,0,0-4503.8-957.366Z" transform="translate(4509.8 965.866)"/></svg>