<svg xmlns="http://www.w3.org/2000/svg" width="13" height="11.145" viewBox="0 0 13 11.145"><defs><style>.a{fill:#21272e;}</style></defs><path class="a" d="M-4541.982-1233.267a3.619,3.619,0,0,1,.87,2.332,3.621,3.621,0,0,1-.87,2.333,5.888,5.888,0,0,1-2.365,1.69,8.424,8.424,0,0,1-3.265.62,9.841,9.841,0,0,1-1.051-.058,7.934,7.934,0,0,1-3.338,1.756,5.451,5.451,0,0,1-.827.159.284.284,0,0,1-.221-.065.369.369,0,0,1-.127-.21v-.008a.1.1,0,0,1,0-.087.178.178,0,0,0,.014-.072c0-.01.009-.033.033-.069l.043-.066c0-.007.022-.027.051-.061s.048-.056.058-.065c.034-.039.109-.123.225-.25s.2-.221.25-.276.126-.152.225-.287a3,3,0,0,0,.236-.37q.087-.166.2-.428a4.59,4.59,0,0,0,.188-.551,5.342,5.342,0,0,1-1.795-1.6,3.519,3.519,0,0,1-.657-2.039,3.466,3.466,0,0,1,.515-1.8,4.976,4.976,0,0,1,1.386-1.483,7.05,7.05,0,0,1,2.075-.99,8.638,8.638,0,0,1,2.524-.366,8.424,8.424,0,0,1,3.265.62A5.878,5.878,0,0,1-4541.982-1233.267Z" transform="translate(4554.112 1235.577)"/></svg>