<svg xmlns="http://www.w3.org/2000/svg" width="12" height="12" viewBox="0 0 12 12"><defs><style>.a{fill:rgba(0,0,0,0.6);}</style></defs><path class="a" d="M-4484.823-5913.572a.466.466,0,0,1,.025.179,2.757,2.757,0,0,1-.085.6,3.343,3.343,0,0,1-.178.583,2.286,2.286,0,0,1-1.041.9,3.311,3.311,0,0,1-1.585.435,3.378,3.378,0,0,1-.453-.03,3.58,3.58,0,0,1-.49-.107q-.267-.076-.4-.123l-.472-.175c-.228-.086-.367-.136-.418-.154a7.672,7.672,0,0,1-1.491-.707,12.839,12.839,0,0,1-2.25-1.841,12.775,12.775,0,0,1-1.841-2.25,7.631,7.631,0,0,1-.708-1.491c-.018-.052-.068-.191-.153-.418s-.144-.385-.175-.473-.073-.221-.123-.4a3.4,3.4,0,0,1-.107-.49,3.367,3.367,0,0,1-.029-.453,3.3,3.3,0,0,1,.435-1.584,2.293,2.293,0,0,1,.9-1.041,3.419,3.419,0,0,1,.583-.178,2.833,2.833,0,0,1,.6-.085.508.508,0,0,1,.179.024c.1.035.252.25.452.648q.093.163.255.46c.108.2.208.379.3.542s.178.314.264.456c.017.023.067.094.149.213a2.5,2.5,0,0,1,.183.3.55.55,0,0,1,.059.242.706.706,0,0,1-.242.427,4.293,4.293,0,0,1-.529.469,5.18,5.18,0,0,0-.527.451.65.65,0,0,0-.244.393.577.577,0,0,0,.043.192,1.884,1.884,0,0,0,.072.174c.02.04.059.108.119.2s.093.15.1.162a8.969,8.969,0,0,0,1.482,2,8.956,8.956,0,0,0,2,1.482l.162.1c.1.06.165.1.2.119s.1.044.175.073a.585.585,0,0,0,.191.043.651.651,0,0,0,.393-.243,5.2,5.2,0,0,0,.452-.528,4.245,4.245,0,0,1,.468-.529.705.705,0,0,1,.427-.243.557.557,0,0,1,.243.06,2.466,2.466,0,0,1,.3.183c.12.083.19.132.213.149q.213.129.456.264c.162.091.343.191.541.3s.353.193.46.255q.6.3.648.453Z" transform="translate(4496.798 5922.87)"/></svg>