<svg xmlns="http://www.w3.org/2000/svg" width="11" height="13" viewBox="0 0 11 13"><defs><style>.a{fill:#677294;}</style></defs><path class="a" d="M-1813.309-2179.58a2.4,2.4,0,0,1,.688,1.727,2.393,2.393,0,0,1-.688,1.726,2.239,2.239,0,0,1-1.67.711,2.237,2.237,0,0,1-1.67-.711,2.389,2.389,0,0,1-.687-1.726,2.786,2.786,0,0,1,.048-.533l-2.5-1.625a2.233,2.233,0,0,1-1.473.533,2.241,2.241,0,0,1-1.67-.711,2.392,2.392,0,0,1-.687-1.727,2.39,2.39,0,0,1,.687-1.726,2.238,2.238,0,0,1,1.67-.711,2.233,2.233,0,0,1,1.473.533l2.5-1.625a2.793,2.793,0,0,1-.048-.533,2.392,2.392,0,0,1,.687-1.727,2.241,2.241,0,0,1,1.67-.711,2.242,2.242,0,0,1,1.67.711,2.4,2.4,0,0,1,.688,1.727,2.393,2.393,0,0,1-.688,1.726,2.239,2.239,0,0,1-1.67.711,2.226,2.226,0,0,1-1.473-.533l-2.5,1.625a2.951,2.951,0,0,1,0,1.067l2.5,1.625a2.227,2.227,0,0,1,1.473-.534A2.242,2.242,0,0,1-1813.309-2179.58Z" transform="translate(1823.621 2188.416)"/></svg>