<svg xmlns="http://www.w3.org/2000/svg" width="40" height="40" viewBox="0 0 40 40"><defs><style>.a{fill:#fff;}.b{fill:#11171d;}</style></defs><g transform="translate(-580 -12410)"><circle class="a" cx="20" cy="20" r="20" transform="translate(580 12410)"/><path class="b" d="M-5106.41-811.835a7.211,7.211,0,0,1-1.656,1.719,1.915,1.915,0,0,1,.031.406,9.269,9.269,0,0,1-1.094,4.344,8.926,8.926,0,0,1-3.156,3.531,9.016,9.016,0,0,1-5.094,1.469,9.107,9.107,0,0,1-5.031-1.469q.344.031.781.031a6.507,6.507,0,0,0,4.094-1.406,3.048,3.048,0,0,1-1.922-.641,3.256,3.256,0,0,1-1.14-1.609,5.919,5.919,0,0,0,.593.031,4.134,4.134,0,0,0,.875-.094,3.3,3.3,0,0,1-1.875-1.156,3.144,3.144,0,0,1-.75-2.062v-.063a3.088,3.088,0,0,0,1.469.438,3.633,3.633,0,0,1-1.062-1.188,3.15,3.15,0,0,1-.407-1.578,3.147,3.147,0,0,1,.469-1.641,9.042,9.042,0,0,0,2.985,2.438,9.085,9.085,0,0,0,3.765,1,4.519,4.519,0,0,1-.062-.75,3.253,3.253,0,0,1,.437-1.641,3.22,3.22,0,0,1,1.188-1.2,3.174,3.174,0,0,1,1.625-.437,3.122,3.122,0,0,1,1.328.281,3.7,3.7,0,0,1,1.078.75,6.681,6.681,0,0,0,2.094-.781,3.255,3.255,0,0,1-1.438,1.812,7.03,7.03,0,0,0,1.875-.531Z" transform="translate(5714.8 13236.866)"/></g></svg>