<svg xmlns="http://www.w3.org/2000/svg" width="12.25" height="14" viewBox="0 0 12.25 14"><defs><style>.a{fill:#262626;}</style></defs><path class="a" d="M-5331.855-5698.673h-11.593a.317.317,0,0,1-.233-.1.315.315,0,0,1-.095-.232v-.985a1.269,1.269,0,0,1,.382-.93,1.266,1.266,0,0,1,.93-.382h1.313v-1.422a.317.317,0,0,1,.095-.233.319.319,0,0,1,.233-.095h1.093a.321.321,0,0,1,.233.095.322.322,0,0,1,.1.233v1.422h3.5v-1.422a.317.317,0,0,1,.095-.233.319.319,0,0,1,.233-.095h1.093a.321.321,0,0,1,.233.095.322.322,0,0,1,.1.233v1.422h1.312a1.268,1.268,0,0,1,.93.382,1.268,1.268,0,0,1,.383.93v.985a.32.32,0,0,1-.1.232A.318.318,0,0,1-5331.855-5698.673Zm-11.593.875h11.593a.321.321,0,0,1,.233.095.322.322,0,0,1,.1.233v7.109a1.265,1.265,0,0,1-.383.93,1.268,1.268,0,0,1-.93.383h-9.625a1.265,1.265,0,0,1-.93-.383,1.265,1.265,0,0,1-.382-.93v-7.109a.317.317,0,0,1,.095-.233A.319.319,0,0,1-5343.448-5697.8Zm3.172,2.078a.322.322,0,0,0-.1-.233.321.321,0,0,0-.233-.095h-1.093a.319.319,0,0,0-.233.095.317.317,0,0,0-.095.233v1.094a.315.315,0,0,0,.095.232.317.317,0,0,0,.233.1h1.093a.318.318,0,0,0,.233-.1.32.32,0,0,0,.1-.232Zm0,3.5a.322.322,0,0,0-.1-.233.321.321,0,0,0-.233-.095h-1.093a.319.319,0,0,0-.233.095.317.317,0,0,0-.095.233v1.094a.315.315,0,0,0,.095.232.317.317,0,0,0,.233.1h1.093a.318.318,0,0,0,.233-.1.32.32,0,0,0,.1-.232Zm3.5-3.5a.322.322,0,0,0-.1-.233.321.321,0,0,0-.233-.095h-1.093a.319.319,0,0,0-.233.095.317.317,0,0,0-.095.233v1.094a.315.315,0,0,0,.095.232.317.317,0,0,0,.233.1h1.093a.318.318,0,0,0,.233-.1.32.32,0,0,0,.1-.232Zm0,3.5a.322.322,0,0,0-.1-.233.321.321,0,0,0-.233-.095h-1.093a.319.319,0,0,0-.233.095.317.317,0,0,0-.095.233v1.094a.315.315,0,0,0,.095.232.317.317,0,0,0,.233.1h1.093a.318.318,0,0,0,.233-.1.32.32,0,0,0,.1-.232Zm3.5-3.5a.322.322,0,0,0-.1-.233.321.321,0,0,0-.233-.095h-1.093a.319.319,0,0,0-.233.095.317.317,0,0,0-.095.233v1.094a.315.315,0,0,0,.095.232.317.317,0,0,0,.233.1h1.093a.318.318,0,0,0,.233-.1.32.32,0,0,0,.1-.232Zm0,3.5a.322.322,0,0,0-.1-.233.321.321,0,0,0-.233-.095h-1.093a.319.319,0,0,0-.233.095.317.317,0,0,0-.095.233v1.094a.315.315,0,0,0,.095.232.317.317,0,0,0,.233.1h1.093a.318.318,0,0,0,.233-.1.32.32,0,0,0,.1-.232Z" transform="translate(5343.776 5703.048)"/></svg>