<svg xmlns="http://www.w3.org/2000/svg" width="30" height="30" viewBox="0 0 30 30"><defs><style>.a{fill:#1da1f2;}.b{fill:#fff;}</style></defs><g transform="translate(-495.498 -4286.004)"><circle class="a" cx="15" cy="15" r="15" transform="translate(495.498 4286.004)"/><path class="b" d="M-1683.385-1651.828a6.778,6.778,0,0,1-1.553,1.612,1.7,1.7,0,0,1,.03.38,8.683,8.683,0,0,1-1.026,4.073,8.357,8.357,0,0,1-2.959,3.31,8.452,8.452,0,0,1-4.775,1.377,8.534,8.534,0,0,1-4.717-1.377q.322.03.732.03a6.1,6.1,0,0,0,3.838-1.319,2.859,2.859,0,0,1-1.8-.6,3.057,3.057,0,0,1-1.07-1.509c.2.019.381.029.557.029a3.878,3.878,0,0,0,.82-.088,3.1,3.1,0,0,1-1.758-1.084,2.952,2.952,0,0,1-.7-1.933v-.059a2.892,2.892,0,0,0,1.377.41,3.407,3.407,0,0,1-1-1.113,2.954,2.954,0,0,1-.381-1.48,2.946,2.946,0,0,1,.44-1.538,8.466,8.466,0,0,0,2.8,2.285,8.509,8.509,0,0,0,3.53.938,4.166,4.166,0,0,1-.059-.7,3.055,3.055,0,0,1,.41-1.538,3.016,3.016,0,0,1,1.114-1.128,2.962,2.962,0,0,1,1.523-.41,2.946,2.946,0,0,1,1.245.263,3.5,3.5,0,0,1,1.011.7,6.234,6.234,0,0,0,1.963-.732,3.054,3.054,0,0,1-1.348,1.7,6.564,6.564,0,0,0,1.758-.5Z" transform="translate(2201.838 5948.544)"/></g></svg>