<svg xmlns="http://www.w3.org/2000/svg" width="40" height="40" viewBox="0 0 40 40"><defs><style>.a{fill:#fff;}.b{fill:#11171d;}</style></defs><g transform="translate(-522 -12410)"><circle class="a" cx="20" cy="20" r="20" transform="translate(522 12410)"/><path class="b" d="M-5165.879-803.366a3.449,3.449,0,0,1-.468,1.75,3.44,3.44,0,0,1-1.282,1.281,3.449,3.449,0,0,1-1.75.469,3.4,3.4,0,0,1-2.125-.719,7.7,7.7,0,0,1-1.375.125,6.265,6.265,0,0,1-3.218-.859,6.378,6.378,0,0,1-2.328-2.329,6.243,6.243,0,0,1-.86-3.218,8.057,8.057,0,0,1,.125-1.375,3.4,3.4,0,0,1-.719-2.125,3.449,3.449,0,0,1,.469-1.75,3.442,3.442,0,0,1,1.281-1.282,3.448,3.448,0,0,1,1.75-.468,3.4,3.4,0,0,1,2.125.718,7.7,7.7,0,0,1,1.375-.125,6.258,6.258,0,0,1,3.219.86,6.4,6.4,0,0,1,2.328,2.328,6.256,6.256,0,0,1,.86,3.219,8.065,8.065,0,0,1-.125,1.375,3.4,3.4,0,0,1,.718,2.125Zm-4.406.062a2.343,2.343,0,0,0,1.094-2.031,2.012,2.012,0,0,0-.938-1.719,5.817,5.817,0,0,0-1.906-.719l-.5-.093a10.322,10.322,0,0,1-1.25-.375.6.6,0,0,1-.406-.563q0-.687,1.312-.687a2.218,2.218,0,0,1,.938.187,4.59,4.59,0,0,1,.562.406,1.131,1.131,0,0,0,.375.313.932.932,0,0,0,.469.125.923.923,0,0,0,.7-.281,1,1,0,0,0,.266-.719q0-.75-1.094-1.25a5.713,5.713,0,0,0-2.39-.469,4.39,4.39,0,0,0-2.3.563,2.191,2.191,0,0,0-1.094,1.968,2.141,2.141,0,0,0,.437,1.407,2.327,2.327,0,0,0,1.125.75,11.522,11.522,0,0,0,1.594.437l.625.156a3.246,3.246,0,0,1,.875.282.6.6,0,0,1,.344.562.7.7,0,0,1-.375.61,1.838,1.838,0,0,1-.984.234,2.061,2.061,0,0,1-1.079-.281,3.377,3.377,0,0,1-.687-.563,2.292,2.292,0,0,0-.438-.406.986.986,0,0,0-.531-.156.853.853,0,0,0-.672.265.984.984,0,0,0-.234.672,1.392,1.392,0,0,0,.5,1.031,3.427,3.427,0,0,0,1.375.735,6.423,6.423,0,0,0,1.875.265,4.284,4.284,0,0,0,2.406-.656Z" transform="translate(5714.8 13236.866)"/></g></svg>