<svg width="110" height="38" viewBox="0 0 110 38" fill="none" xmlns="http://www.w3.org/2000/svg">
<path d="M0 0H110V23C110 31.2843 103.284 38 95 38H0V0Z" fill="#9C9C42"/>
<path d="M21.672 19.16C22.3653 19.3093 22.9253 19.64 23.352 20.152C23.7893 20.664 24.008 21.2667 24.008 21.96C24.008 22.8773 23.6933 23.6133 23.064 24.168C22.4453 24.7227 21.544 25 20.36 25H16.168V13.72H20.296C21.4267 13.72 22.2853 13.9707 22.872 14.472C23.4587 14.9733 23.752 15.6613 23.752 16.536C23.752 17.2613 23.5547 17.848 23.16 18.296C22.776 18.744 22.28 19.032 21.672 19.16ZM17.624 18.664H20.056C20.7707 18.664 21.3147 18.4987 21.688 18.168C22.072 17.8373 22.264 17.3733 22.264 16.776C22.264 16.2 22.0773 15.7467 21.704 15.416C21.3307 15.0853 20.76 14.92 19.992 14.92H17.624V18.664ZM20.088 23.784C20.856 23.784 21.448 23.608 21.864 23.256C22.2907 22.904 22.504 22.408 22.504 21.768C22.504 21.1387 22.2853 20.648 21.848 20.296C21.4213 19.9333 20.824 19.752 20.056 19.752H17.624V23.784H20.088ZM27.2803 17.992C27.5683 17.384 27.9896 16.9147 28.5443 16.584C29.0989 16.2427 29.7603 16.072 30.5283 16.072V17.656H30.0803C29.2589 17.656 28.5869 17.8693 28.0643 18.296C27.5416 18.712 27.2803 19.4053 27.2803 20.376V25H25.8243V16.216H27.2803V17.992ZM40.0449 20.12C40.0449 20.4293 40.0235 20.696 39.9809 20.92H32.9569C32.9889 21.9227 33.2715 22.6747 33.8049 23.176C34.3489 23.6773 35.0102 23.928 35.7889 23.928C36.4929 23.928 37.0795 23.752 37.5489 23.4C38.0289 23.0373 38.3222 22.5573 38.4289 21.96H39.9809C39.8742 22.568 39.6342 23.112 39.2609 23.592C38.8982 24.072 38.4235 24.4453 37.8369 24.712C37.2502 24.9787 36.5889 25.112 35.8529 25.112C35.0102 25.112 34.2635 24.9307 33.6129 24.568C32.9622 24.2053 32.4502 23.688 32.0769 23.016C31.7142 22.3333 31.5329 21.5333 31.5329 20.616C31.5329 19.6987 31.7142 18.8987 32.0769 18.216C32.4502 17.5333 32.9622 17.0107 33.6129 16.648C34.2635 16.2853 35.0102 16.104 35.8529 16.104C36.7062 16.104 37.4475 16.2853 38.0769 16.648C38.7169 17.0107 39.2022 17.496 39.5329 18.104C39.8742 18.712 40.0449 19.384 40.0449 20.12ZM38.5729 20.216C38.6049 19.5653 38.4982 19.0213 38.2529 18.584C38.0075 18.1467 37.6715 17.8213 37.2449 17.608C36.8182 17.3947 36.3542 17.288 35.8529 17.288C35.0529 17.288 34.3809 17.5387 33.8369 18.04C33.2929 18.5307 32.9995 19.256 32.9569 20.216H38.5729ZM45.5493 16.104C46.4026 16.104 47.1226 16.3173 47.7093 16.744C48.3066 17.1707 48.7226 17.7413 48.9573 18.456V16.216H50.4133V25H48.9573V22.76C48.7226 23.4747 48.3066 24.0453 47.7093 24.472C47.1226 24.8987 46.4026 25.112 45.5493 25.112C44.7706 25.112 44.0773 24.9307 43.4693 24.568C42.8613 24.2053 42.3813 23.688 42.0293 23.016C41.6879 22.3333 41.5173 21.5333 41.5173 20.616C41.5173 19.6987 41.6879 18.8987 42.0293 18.216C42.3813 17.5333 42.8613 17.0107 43.4693 16.648C44.0773 16.2853 44.7706 16.104 45.5493 16.104ZM45.9653 17.4C45.0693 17.4 44.3493 17.688 43.8053 18.264C43.2719 18.8293 43.0053 19.6133 43.0053 20.616C43.0053 21.6187 43.2719 22.408 43.8053 22.984C44.3493 23.5493 45.0693 23.832 45.9653 23.832C46.5413 23.832 47.0533 23.6987 47.5013 23.432C47.9599 23.1653 48.3173 22.792 48.5733 22.312C48.8293 21.8213 48.9573 21.256 48.9573 20.616C48.9573 19.976 48.8293 19.4107 48.5733 18.92C48.3173 18.4293 47.9599 18.056 47.5013 17.8C47.0533 17.5333 46.5413 17.4 45.9653 17.4ZM57.5465 25L54.1865 21.048V25H52.7305V13.16H54.1865V20.04L57.4985 16.216H59.2745L55.3385 20.584L59.3705 25H57.5465ZM64.5404 14.136C63.7617 14.1253 63.2177 14.2587 62.9084 14.536C62.6097 14.8133 62.4604 15.2933 62.4604 15.976V16.216H64.5404V17.496H62.4604V25H61.0044V17.496H59.7404V16.216H61.0044V15.864C61.0044 13.7627 62.183 12.76 64.5404 12.856V14.136ZM69.7211 16.104C70.5745 16.104 71.2945 16.3173 71.8811 16.744C72.4785 17.1707 72.8945 17.7413 73.1291 18.456V16.216H74.5851V25H73.1291V22.76C72.8945 23.4747 72.4785 24.0453 71.8811 24.472C71.2945 24.8987 70.5745 25.112 69.7211 25.112C68.9425 25.112 68.2491 24.9307 67.6411 24.568C67.0331 24.2053 66.5531 23.688 66.2011 23.016C65.8598 22.3333 65.6891 21.5333 65.6891 20.616C65.6891 19.6987 65.8598 18.8987 66.2011 18.216C66.5531 17.5333 67.0331 17.0107 67.6411 16.648C68.2491 16.2853 68.9425 16.104 69.7211 16.104ZM70.1371 17.4C69.2411 17.4 68.5211 17.688 67.9771 18.264C67.4438 18.8293 67.1771 19.6133 67.1771 20.616C67.1771 21.6187 67.4438 22.408 67.9771 22.984C68.5211 23.5493 69.2411 23.832 70.1371 23.832C70.7131 23.832 71.2251 23.6987 71.6731 23.432C72.1318 23.1653 72.4891 22.792 72.7451 22.312C73.0011 21.8213 73.1291 21.256 73.1291 20.616C73.1291 19.976 73.0011 19.4107 72.7451 18.92C72.4891 18.4293 72.1318 18.056 71.6731 17.8C71.2251 17.5333 70.7131 17.4 70.1371 17.4ZM79.6544 16.104C80.6464 16.104 81.441 16.3653 82.0384 16.888C82.6464 17.4 83.0144 18.0933 83.1424 18.968H81.7504C81.6864 18.4453 81.4677 18.0187 81.0944 17.688C80.7317 17.3467 80.241 17.176 79.6224 17.176C79.0997 17.176 78.689 17.304 78.3904 17.56C78.1024 17.8053 77.9584 18.1413 77.9584 18.568C77.9584 18.888 78.0544 19.1493 78.2464 19.352C78.449 19.544 78.6944 19.6933 78.9824 19.8C79.281 19.896 79.6864 20.0027 80.1984 20.12C80.849 20.2693 81.3717 20.424 81.7664 20.584C82.1717 20.7333 82.513 20.9787 82.7904 21.32C83.0784 21.6613 83.2224 22.12 83.2224 22.696C83.2224 23.4107 82.9504 23.992 82.4064 24.44C81.873 24.888 81.1584 25.112 80.2624 25.112C79.217 25.112 78.3637 24.8613 77.7024 24.36C77.041 23.8587 76.6517 23.16 76.5344 22.264H77.9424C77.9957 22.7973 78.225 23.2293 78.6304 23.56C79.0464 23.8907 79.5904 24.056 80.2624 24.056C80.7637 24.056 81.153 23.928 81.4304 23.672C81.7184 23.416 81.8624 23.08 81.8624 22.664C81.8624 22.3227 81.761 22.0507 81.5584 21.848C81.3557 21.6453 81.105 21.4907 80.8064 21.384C80.5077 21.2773 80.097 21.1653 79.5744 21.048C78.9237 20.8987 78.401 20.7493 78.0064 20.6C77.6224 20.4507 77.2917 20.216 77.0144 19.896C76.7477 19.5653 76.6144 19.1227 76.6144 18.568C76.6144 17.832 76.8864 17.24 77.4304 16.792C77.9744 16.3333 78.7157 16.104 79.6544 16.104ZM89.36 23.72V25H88.272C87.376 25 86.704 24.7867 86.256 24.36C85.8187 23.9333 85.6 23.2187 85.6 22.216V17.48H84.288V16.216H85.6V14.024H87.072V16.216H89.344V17.48H87.072V22.248C87.072 22.8133 87.1733 23.2027 87.376 23.416C87.5893 23.6187 87.952 23.72 88.464 23.72H89.36Z" fill="white"/>
</svg>
